<mxfile host="app.diagrams.net" agent="Mozilla/5.0 (X11; Ubuntu; Linux x86_64; rv:131.0) Gecko/20100101 Firefox/131.0" version="24.8.6">
  <diagram name="Page-1" id="DvOJFajsWsDJkNUpYscc">
    <mxGraphModel dx="1364" dy="1895" grid="1" gridSize="10" guides="1" tooltips="1" connect="1" arrows="1" fold="1" page="1" pageScale="1" pageWidth="850" pageHeight="1100" math="0" shadow="0">
      <root>
        <mxCell id="0" />
        <mxCell id="1" parent="0" />
        <mxCell id="2lE5Eo7Lk-MTYAhb3dyY-4" value="" style="edgeStyle=orthogonalEdgeStyle;rounded=0;orthogonalLoop=1;jettySize=auto;html=1;" edge="1" parent="1" source="2lE5Eo7Lk-MTYAhb3dyY-1" target="2lE5Eo7Lk-MTYAhb3dyY-3">
          <mxGeometry relative="1" as="geometry" />
        </mxCell>
        <mxCell id="2lE5Eo7Lk-MTYAhb3dyY-1" value="&lt;div align=&quot;center&quot;&gt;&lt;font style=&quot;font-size: 20px;&quot;&gt;Client&lt;/font&gt;&lt;/div&gt;" style="rounded=1;whiteSpace=wrap;html=1;align=center;fillColor=#ffe6cc;strokeColor=#d79b00;" vertex="1" parent="1">
          <mxGeometry x="110" y="40" width="120" height="40" as="geometry" />
        </mxCell>
        <mxCell id="2lE5Eo7Lk-MTYAhb3dyY-6" value="" style="edgeStyle=orthogonalEdgeStyle;rounded=0;orthogonalLoop=1;jettySize=auto;html=1;" edge="1" parent="1" source="2lE5Eo7Lk-MTYAhb3dyY-2" target="2lE5Eo7Lk-MTYAhb3dyY-5">
          <mxGeometry relative="1" as="geometry" />
        </mxCell>
        <mxCell id="2lE5Eo7Lk-MTYAhb3dyY-2" value="&lt;div style=&quot;font-size: 20px;&quot; align=&quot;center&quot;&gt;&lt;font style=&quot;font-size: 20px;&quot;&gt;Server&lt;/font&gt;&lt;/div&gt;" style="rounded=1;whiteSpace=wrap;html=1;align=center;fillColor=#dae8fc;strokeColor=#6c8ebf;" vertex="1" parent="1">
          <mxGeometry x="652.5" y="40" width="120" height="40" as="geometry" />
        </mxCell>
        <mxCell id="2lE5Eo7Lk-MTYAhb3dyY-7" style="edgeStyle=orthogonalEdgeStyle;rounded=0;orthogonalLoop=1;jettySize=auto;html=1;entryX=0;entryY=0.25;entryDx=0;entryDy=0;" edge="1" parent="1" source="2lE5Eo7Lk-MTYAhb3dyY-3" target="2lE5Eo7Lk-MTYAhb3dyY-5">
          <mxGeometry relative="1" as="geometry">
            <Array as="points">
              <mxPoint x="350" y="180" />
              <mxPoint x="350" y="180" />
            </Array>
          </mxGeometry>
        </mxCell>
        <mxCell id="2lE5Eo7Lk-MTYAhb3dyY-16" value="" style="edgeStyle=orthogonalEdgeStyle;rounded=0;orthogonalLoop=1;jettySize=auto;html=1;entryX=0.5;entryY=0;entryDx=0;entryDy=0;" edge="1" parent="1" source="2lE5Eo7Lk-MTYAhb3dyY-3" target="2lE5Eo7Lk-MTYAhb3dyY-17">
          <mxGeometry relative="1" as="geometry">
            <mxPoint x="170" y="380" as="targetPoint" />
          </mxGeometry>
        </mxCell>
        <mxCell id="2lE5Eo7Lk-MTYAhb3dyY-3" value="&lt;div&gt;&lt;font style=&quot;font-size: 13px;&quot;&gt;&lt;b&gt;Choose Game (gameTypes):&lt;/b&gt;&lt;/font&gt;&lt;/div&gt;&lt;div align=&quot;center&quot;&gt;-Single Player (&quot;computer&quot;)&lt;br&gt;&lt;/div&gt;&lt;div align=&quot;center&quot;&gt;-Local Multiplayer (&quot;local&quot;)&lt;/div&gt;&lt;div align=&quot;center&quot;&gt;-Remote Multiplayer (&quot;remote&quot;)&lt;br&gt;&lt;/div&gt;&lt;div&gt;&lt;br&gt;&lt;/div&gt;" style="rounded=1;whiteSpace=wrap;html=1;align=left;fillColor=#ffe6cc;strokeColor=#d79b00;" vertex="1" parent="1">
          <mxGeometry x="75" y="150" width="190" height="120" as="geometry" />
        </mxCell>
        <mxCell id="2lE5Eo7Lk-MTYAhb3dyY-13" value="" style="edgeStyle=orthogonalEdgeStyle;rounded=0;orthogonalLoop=1;jettySize=auto;html=1;" edge="1" parent="1" source="2lE5Eo7Lk-MTYAhb3dyY-5" target="2lE5Eo7Lk-MTYAhb3dyY-12">
          <mxGeometry relative="1" as="geometry" />
        </mxCell>
        <mxCell id="2lE5Eo7Lk-MTYAhb3dyY-14" style="edgeStyle=orthogonalEdgeStyle;rounded=0;orthogonalLoop=1;jettySize=auto;html=1;exitX=0;exitY=0.75;exitDx=0;exitDy=0;entryX=1;entryY=0.75;entryDx=0;entryDy=0;" edge="1" parent="1" source="2lE5Eo7Lk-MTYAhb3dyY-5" target="2lE5Eo7Lk-MTYAhb3dyY-3">
          <mxGeometry relative="1" as="geometry" />
        </mxCell>
        <mxCell id="2lE5Eo7Lk-MTYAhb3dyY-26" style="edgeStyle=orthogonalEdgeStyle;rounded=0;orthogonalLoop=1;jettySize=auto;html=1;" edge="1" parent="1" source="2lE5Eo7Lk-MTYAhb3dyY-5" target="2lE5Eo7Lk-MTYAhb3dyY-18">
          <mxGeometry relative="1" as="geometry" />
        </mxCell>
        <mxCell id="2lE5Eo7Lk-MTYAhb3dyY-5" value="&lt;div&gt;&lt;b&gt;create or search room depending on the gameType&lt;/b&gt;&lt;/div&gt;&lt;div&gt;&lt;b&gt;response depending on gameType&lt;/b&gt;&lt;/div&gt;&lt;div&gt;&lt;b&gt;&lt;br&gt;&lt;/b&gt;&lt;/div&gt;&lt;div&gt;&lt;br&gt;&lt;/div&gt;&lt;div&gt;&lt;br&gt;&lt;/div&gt;" style="rounded=1;whiteSpace=wrap;html=1;align=left;fillColor=#dae8fc;strokeColor=#6c8ebf;" vertex="1" parent="1">
          <mxGeometry x="565" y="150" width="295" height="120" as="geometry" />
        </mxCell>
        <mxCell id="2lE5Eo7Lk-MTYAhb3dyY-9" value="&lt;div&gt;&lt;span class=&quot;hljs-punctuation&quot;&gt;&lt;b&gt;api call /pong/create-room&lt;br&gt;&lt;/b&gt;&lt;/span&gt;&lt;/div&gt;&lt;div&gt;&lt;span class=&quot;hljs-punctuation&quot;&gt;{&lt;/span&gt;&lt;/div&gt;&amp;nbsp;&amp;nbsp; &lt;span class=&quot;hljs-attr&quot;&gt;&quot;player&quot;&lt;/span&gt;&lt;span class=&quot;hljs-punctuation&quot;&gt;:&lt;/span&gt; &lt;span class=&quot;hljs-string&quot;&gt;&quot;JohnDoe&quot;&lt;/span&gt;&lt;span class=&quot;hljs-punctuation&quot;&gt;,&lt;/span&gt;&lt;br&gt;&amp;nbsp;&amp;nbsp; &lt;span class=&quot;hljs-attr&quot;&gt;&quot;gameType&quot;&lt;/span&gt;&lt;span class=&quot;hljs-punctuation&quot;&gt;:&lt;/span&gt; &lt;span class=&quot;hljs-string&quot;&gt;&quot;computer&quot;&lt;/span&gt;&lt;br&gt;&lt;span class=&quot;hljs-punctuation&quot;&gt;}&lt;/span&gt;" style="text;whiteSpace=wrap;html=1;fillColor=#ffe6cc;strokeColor=#d79b00;" vertex="1" parent="1">
          <mxGeometry x="315" y="120" width="190" height="80" as="geometry" />
        </mxCell>
        <mxCell id="2lE5Eo7Lk-MTYAhb3dyY-11" value="&lt;div&gt;&lt;span class=&quot;hljs-punctuation&quot;&gt;&lt;b&gt;response&lt;/b&gt; {&lt;/span&gt;&lt;/div&gt;&lt;div&gt;&lt;span class=&quot;hljs-punctuation&quot;&gt;&amp;nbsp;&amp;nbsp; &quot;room_name&quot;: &quot;someName&quot;&lt;br&gt;&lt;/span&gt;&lt;/div&gt;&amp;nbsp;&amp;nbsp; &lt;span class=&quot;hljs-attr&quot;&gt;&quot;player1&quot;&lt;/span&gt;&lt;span class=&quot;hljs-punctuation&quot;&gt;:&lt;/span&gt; &lt;span class=&quot;hljs-string&quot;&gt;&quot;JohnDoe&quot;&lt;/span&gt;&lt;span class=&quot;hljs-punctuation&quot;&gt;,&lt;/span&gt;&lt;br&gt;&amp;nbsp;&amp;nbsp; &lt;span class=&quot;hljs-attr&quot;&gt;&quot;player2&quot;&lt;/span&gt;&lt;span class=&quot;hljs-punctuation&quot;&gt;:&lt;/span&gt; &lt;span class=&quot;hljs-string&quot;&gt;&quot;computer&quot;&lt;/span&gt;&lt;br&gt;&lt;span class=&quot;hljs-punctuation&quot;&gt;}&lt;/span&gt;" style="text;whiteSpace=wrap;html=1;fillColor=#dae8fc;strokeColor=#6c8ebf;" vertex="1" parent="1">
          <mxGeometry x="320" y="220" width="180" height="80" as="geometry" />
        </mxCell>
        <mxCell id="2lE5Eo7Lk-MTYAhb3dyY-12" value="API Endpoint &lt;b&gt;Pseudocode&lt;/b&gt;: POST /pong/pong/create-room&lt;br&gt;&lt;br&gt;Function createRoom(request):&lt;br&gt;&amp;nbsp;&amp;nbsp;&amp;nbsp; Input:&lt;br&gt;&amp;nbsp;&amp;nbsp;&amp;nbsp;&amp;nbsp;&amp;nbsp;&amp;nbsp;&amp;nbsp; requestBody = request.getBody()&lt;br&gt;&amp;nbsp;&amp;nbsp;&amp;nbsp;&amp;nbsp;&amp;nbsp;&amp;nbsp;&amp;nbsp; player = requestBody[&quot;player&quot;]&lt;br&gt;&amp;nbsp;&amp;nbsp;&amp;nbsp;&amp;nbsp;&amp;nbsp;&amp;nbsp;&amp;nbsp; gameType = requestBody[&quot;gameType&quot;]&lt;br&gt;&amp;nbsp;&amp;nbsp; &amp;nbsp;&lt;br&gt;&amp;nbsp;&amp;nbsp;&amp;nbsp; Initialize:&lt;br&gt;&amp;nbsp;&amp;nbsp;&amp;nbsp;&amp;nbsp;&amp;nbsp;&amp;nbsp;&amp;nbsp; response = {}&lt;br&gt;&amp;nbsp;&amp;nbsp;&amp;nbsp;&amp;nbsp;&amp;nbsp;&amp;nbsp;&amp;nbsp; roomName = generateUniqueRoomName() // Function to generate a unique room name&lt;br&gt;&lt;br&gt;&amp;nbsp;&amp;nbsp;&amp;nbsp; If gameType == &quot;computer&quot;:&lt;br&gt;&amp;nbsp;&amp;nbsp;&amp;nbsp;&amp;nbsp;&amp;nbsp;&amp;nbsp;&amp;nbsp; response = {&lt;br&gt;&amp;nbsp;&amp;nbsp;&amp;nbsp;&amp;nbsp;&amp;nbsp;&amp;nbsp;&amp;nbsp;&amp;nbsp;&amp;nbsp;&amp;nbsp;&amp;nbsp; &quot;room_name&quot;: roomName,&lt;br&gt;&amp;nbsp;&amp;nbsp;&amp;nbsp;&amp;nbsp;&amp;nbsp;&amp;nbsp;&amp;nbsp;&amp;nbsp;&amp;nbsp;&amp;nbsp;&amp;nbsp; &quot;player1&quot;: player,&lt;br&gt;&amp;nbsp;&amp;nbsp;&amp;nbsp;&amp;nbsp;&amp;nbsp;&amp;nbsp;&amp;nbsp;&amp;nbsp;&amp;nbsp;&amp;nbsp;&amp;nbsp; &quot;player2&quot;: &quot;computer&quot;&lt;br&gt;&amp;nbsp;&amp;nbsp;&amp;nbsp;&amp;nbsp;&amp;nbsp;&amp;nbsp;&amp;nbsp; }&lt;br&gt;&amp;nbsp;&amp;nbsp;&amp;nbsp;&amp;nbsp;&amp;nbsp;&amp;nbsp;&amp;nbsp; saveRoomToDatabase(roomName, player, &quot;computer&quot;) // Save room info to database&lt;br&gt;&lt;br&gt;&amp;nbsp;&amp;nbsp;&amp;nbsp; Else If gameType == &quot;local&quot;:&lt;br&gt;&amp;nbsp;&amp;nbsp;&amp;nbsp;&amp;nbsp;&amp;nbsp;&amp;nbsp;&amp;nbsp; response = {&lt;br&gt;&amp;nbsp;&amp;nbsp;&amp;nbsp;&amp;nbsp;&amp;nbsp;&amp;nbsp;&amp;nbsp;&amp;nbsp;&amp;nbsp;&amp;nbsp;&amp;nbsp; &quot;room_name&quot;: roomName,&lt;br&gt;&amp;nbsp;&amp;nbsp;&amp;nbsp;&amp;nbsp;&amp;nbsp;&amp;nbsp;&amp;nbsp;&amp;nbsp;&amp;nbsp;&amp;nbsp;&amp;nbsp; &quot;player1&quot;: player,&lt;br&gt;&amp;nbsp;&amp;nbsp;&amp;nbsp;&amp;nbsp;&amp;nbsp;&amp;nbsp;&amp;nbsp;&amp;nbsp;&amp;nbsp;&amp;nbsp;&amp;nbsp; &quot;player2&quot;: &quot;Player2&quot; // Placeholder for local multiplayer&lt;br&gt;&amp;nbsp;&amp;nbsp;&amp;nbsp;&amp;nbsp;&amp;nbsp;&amp;nbsp;&amp;nbsp; }&lt;br&gt;&amp;nbsp;&amp;nbsp;&amp;nbsp;&amp;nbsp;&amp;nbsp;&amp;nbsp;&amp;nbsp; saveRoomToDatabase(roomName, player, &quot;Player2&quot;) // Save room info to database&lt;br&gt;&lt;br&gt;&amp;nbsp;&amp;nbsp;&amp;nbsp; Else If gameType == &quot;remote&quot;:&lt;br&gt;&amp;nbsp;&amp;nbsp;&amp;nbsp;&amp;nbsp;&amp;nbsp;&amp;nbsp;&amp;nbsp; openRoom = findOpenRoom() // Function to search for an open room&lt;br&gt;&amp;nbsp;&amp;nbsp;&amp;nbsp;&amp;nbsp;&amp;nbsp;&amp;nbsp;&amp;nbsp; If openRoom exists:&lt;br&gt;&amp;nbsp;&amp;nbsp;&amp;nbsp;&amp;nbsp;&amp;nbsp;&amp;nbsp;&amp;nbsp;&amp;nbsp;&amp;nbsp;&amp;nbsp;&amp;nbsp; matchedPlayerName = openRoom[&quot;player1&quot;]&lt;br&gt;&amp;nbsp;&amp;nbsp;&amp;nbsp;&amp;nbsp;&amp;nbsp;&amp;nbsp;&amp;nbsp;&amp;nbsp;&amp;nbsp;&amp;nbsp;&amp;nbsp; roomName = openRoom[&quot;room_name&quot;]&lt;br&gt;&amp;nbsp;&amp;nbsp;&amp;nbsp;&amp;nbsp;&amp;nbsp;&amp;nbsp;&amp;nbsp;&amp;nbsp;&amp;nbsp;&amp;nbsp;&amp;nbsp; updateRoomWithPlayer2(openRoom, player) // Add the player to the existing room&lt;br&gt;&amp;nbsp;&amp;nbsp;&amp;nbsp;&amp;nbsp;&amp;nbsp;&amp;nbsp;&amp;nbsp;&amp;nbsp;&amp;nbsp;&amp;nbsp;&amp;nbsp; response = {&lt;br&gt;&amp;nbsp;&amp;nbsp;&amp;nbsp;&amp;nbsp;&amp;nbsp;&amp;nbsp;&amp;nbsp;&amp;nbsp;&amp;nbsp;&amp;nbsp;&amp;nbsp;&amp;nbsp;&amp;nbsp;&amp;nbsp;&amp;nbsp; &quot;room_name&quot;: roomName,&lt;br&gt;&amp;nbsp;&amp;nbsp;&amp;nbsp;&amp;nbsp;&amp;nbsp;&amp;nbsp;&amp;nbsp;&amp;nbsp;&amp;nbsp;&amp;nbsp;&amp;nbsp;&amp;nbsp;&amp;nbsp;&amp;nbsp;&amp;nbsp; &quot;player1&quot;: matchedPlayerName,&lt;br&gt;&amp;nbsp;&amp;nbsp;&amp;nbsp;&amp;nbsp;&amp;nbsp;&amp;nbsp;&amp;nbsp;&amp;nbsp;&amp;nbsp;&amp;nbsp;&amp;nbsp;&amp;nbsp;&amp;nbsp;&amp;nbsp;&amp;nbsp; &quot;player2&quot;: player&lt;br&gt;&amp;nbsp;&amp;nbsp;&amp;nbsp;&amp;nbsp;&amp;nbsp;&amp;nbsp;&amp;nbsp;&amp;nbsp;&amp;nbsp;&amp;nbsp;&amp;nbsp; }&lt;br&gt;&amp;nbsp;&amp;nbsp;&amp;nbsp;&amp;nbsp;&amp;nbsp;&amp;nbsp;&amp;nbsp; Else:&lt;br&gt;&amp;nbsp;&amp;nbsp;&amp;nbsp;&amp;nbsp;&amp;nbsp;&amp;nbsp;&amp;nbsp;&amp;nbsp;&amp;nbsp;&amp;nbsp;&amp;nbsp; // No open room found, create a new one&lt;br&gt;&amp;nbsp;&amp;nbsp;&amp;nbsp;&amp;nbsp;&amp;nbsp;&amp;nbsp;&amp;nbsp;&amp;nbsp;&amp;nbsp;&amp;nbsp;&amp;nbsp; saveRoomToDatabase(roomName, player, None) // Room will wait for a second player&lt;br&gt;&amp;nbsp;&amp;nbsp;&amp;nbsp;&amp;nbsp;&amp;nbsp;&amp;nbsp;&amp;nbsp;&amp;nbsp;&amp;nbsp;&amp;nbsp;&amp;nbsp; waitUntilMatched(roomName, player) // Asynchronous function to wait for a match&lt;br&gt;&amp;nbsp;&amp;nbsp;&amp;nbsp;&amp;nbsp;&amp;nbsp;&amp;nbsp;&amp;nbsp;&amp;nbsp;&amp;nbsp;&amp;nbsp;&amp;nbsp; matchedPlayerName = getMatchedPlayer(roomName) // Fetch matched player&#39;s name&lt;br&gt;&amp;nbsp;&amp;nbsp;&amp;nbsp;&amp;nbsp;&amp;nbsp;&amp;nbsp;&amp;nbsp;&amp;nbsp;&amp;nbsp;&amp;nbsp;&amp;nbsp; response = {&lt;br&gt;&amp;nbsp;&amp;nbsp;&amp;nbsp;&amp;nbsp;&amp;nbsp;&amp;nbsp;&amp;nbsp;&amp;nbsp;&amp;nbsp;&amp;nbsp;&amp;nbsp;&amp;nbsp;&amp;nbsp;&amp;nbsp;&amp;nbsp; &quot;room_name&quot;: roomName,&lt;br&gt;&amp;nbsp;&amp;nbsp;&amp;nbsp;&amp;nbsp;&amp;nbsp;&amp;nbsp;&amp;nbsp;&amp;nbsp;&amp;nbsp;&amp;nbsp;&amp;nbsp;&amp;nbsp;&amp;nbsp;&amp;nbsp;&amp;nbsp; &quot;player1&quot;: player,&lt;br&gt;&amp;nbsp;&amp;nbsp;&amp;nbsp;&amp;nbsp;&amp;nbsp;&amp;nbsp;&amp;nbsp;&amp;nbsp;&amp;nbsp;&amp;nbsp;&amp;nbsp;&amp;nbsp;&amp;nbsp;&amp;nbsp;&amp;nbsp; &quot;player2&quot;: matchedPlayerName&lt;br&gt;&amp;nbsp;&amp;nbsp;&amp;nbsp;&amp;nbsp;&amp;nbsp;&amp;nbsp;&amp;nbsp;&amp;nbsp;&amp;nbsp;&amp;nbsp;&amp;nbsp; }&lt;br&gt;&lt;br&gt;&amp;nbsp;&amp;nbsp;&amp;nbsp; Else:&lt;br&gt;&amp;nbsp;&amp;nbsp;&amp;nbsp;&amp;nbsp;&amp;nbsp;&amp;nbsp;&amp;nbsp; response = {&lt;br&gt;&amp;nbsp;&amp;nbsp;&amp;nbsp;&amp;nbsp;&amp;nbsp;&amp;nbsp;&amp;nbsp;&amp;nbsp;&amp;nbsp;&amp;nbsp;&amp;nbsp; &quot;error&quot;: &quot;Invalid game type&quot;&lt;br&gt;&amp;nbsp;&amp;nbsp;&amp;nbsp;&amp;nbsp;&amp;nbsp;&amp;nbsp;&amp;nbsp; }&lt;br&gt;&amp;nbsp;&amp;nbsp;&amp;nbsp;&amp;nbsp;&amp;nbsp;&amp;nbsp;&amp;nbsp; return response with HTTP status 400&lt;br&gt;&lt;br&gt;&amp;nbsp;&amp;nbsp;&amp;nbsp; return response with HTTP status 200&lt;div&gt;&lt;br&gt;&lt;/div&gt;" style="rounded=0;whiteSpace=wrap;html=1;align=left;fillColor=#dae8fc;strokeColor=#6c8ebf;" vertex="1" parent="1">
          <mxGeometry x="970" y="-220" width="510" height="860" as="geometry" />
        </mxCell>
        <mxCell id="2lE5Eo7Lk-MTYAhb3dyY-21" style="edgeStyle=orthogonalEdgeStyle;rounded=0;orthogonalLoop=1;jettySize=auto;html=1;exitX=1;exitY=0.25;exitDx=0;exitDy=0;entryX=0;entryY=0.25;entryDx=0;entryDy=0;" edge="1" parent="1" source="2lE5Eo7Lk-MTYAhb3dyY-17" target="2lE5Eo7Lk-MTYAhb3dyY-18">
          <mxGeometry relative="1" as="geometry" />
        </mxCell>
        <mxCell id="2lE5Eo7Lk-MTYAhb3dyY-30" value="" style="edgeStyle=orthogonalEdgeStyle;rounded=0;orthogonalLoop=1;jettySize=auto;html=1;" edge="1" parent="1" source="2lE5Eo7Lk-MTYAhb3dyY-17" target="2lE5Eo7Lk-MTYAhb3dyY-29">
          <mxGeometry relative="1" as="geometry" />
        </mxCell>
        <mxCell id="2lE5Eo7Lk-MTYAhb3dyY-17" value="&lt;div&gt;&lt;b&gt;Start Game:&lt;/b&gt;&lt;/div&gt;&lt;div&gt;keypress &quot;&quot; &quot;up&quot; or &quot;down&quot;&lt;/div&gt;&lt;div&gt;keypress_p2 is &quot;&quot;(empty) if it&#39;s not a local multiplayer game&lt;br&gt;&lt;/div&gt;" style="rounded=1;whiteSpace=wrap;html=1;align=left;fillColor=#ffe6cc;strokeColor=#d79b00;" vertex="1" parent="1">
          <mxGeometry x="75" y="420" width="190" height="120" as="geometry" />
        </mxCell>
        <mxCell id="2lE5Eo7Lk-MTYAhb3dyY-23" style="edgeStyle=orthogonalEdgeStyle;rounded=0;orthogonalLoop=1;jettySize=auto;html=1;exitX=0;exitY=0.75;exitDx=0;exitDy=0;entryX=1;entryY=0.75;entryDx=0;entryDy=0;" edge="1" parent="1" source="2lE5Eo7Lk-MTYAhb3dyY-18" target="2lE5Eo7Lk-MTYAhb3dyY-17">
          <mxGeometry relative="1" as="geometry" />
        </mxCell>
        <mxCell id="2lE5Eo7Lk-MTYAhb3dyY-18" value="&lt;div align=&quot;center&quot;&gt;&lt;b&gt;calculate next frame&lt;/b&gt;:&lt;/div&gt;&lt;div align=&quot;center&quot;&gt;&lt;br&gt;&lt;/div&gt;&lt;div align=&quot;center&quot;&gt;set winner only after finishing the game&lt;br&gt;&lt;/div&gt;" style="rounded=1;whiteSpace=wrap;html=1;align=center;fillColor=#dae8fc;strokeColor=#6c8ebf;" vertex="1" parent="1">
          <mxGeometry x="565" y="420" width="295" height="120" as="geometry" />
        </mxCell>
        <mxCell id="2lE5Eo7Lk-MTYAhb3dyY-22" value="&lt;div&gt;&lt;span class=&quot;hljs-punctuation&quot;&gt;&lt;b&gt;api call /pong/game_state ${room_name}&lt;br&gt;&lt;/b&gt;&lt;/span&gt;&lt;/div&gt;&lt;div&gt;&lt;span class=&quot;hljs-punctuation&quot;&gt;{&lt;/span&gt;&lt;/div&gt;&lt;span class=&quot;hljs-attr&quot;&gt;&amp;nbsp; &quot;keypress_p1&quot;: &quot;up&quot;,&lt;br&gt;&amp;nbsp; &quot;keypress_p2&quot;: &quot;&quot;,&lt;br&gt;&amp;nbsp; &quot;room_name&quot;: &quot;someName&quot;&lt;/span&gt;&lt;br&gt;&lt;span class=&quot;hljs-punctuation&quot;&gt;}&lt;/span&gt;" style="text;whiteSpace=wrap;html=1;fillColor=#ffe6cc;strokeColor=#d79b00;" vertex="1" parent="1">
          <mxGeometry x="290" y="380" width="240" height="90" as="geometry" />
        </mxCell>
        <mxCell id="2lE5Eo7Lk-MTYAhb3dyY-24" value="&lt;div&gt;&lt;span class=&quot;hljs-punctuation&quot;&gt;&lt;b&gt;response&lt;/b&gt; &lt;br&gt;&lt;/span&gt;&lt;/div&gt;&amp;nbsp;{&lt;br&gt;&amp;nbsp;&amp;nbsp;&amp;nbsp; &quot;ball_x&quot;: 0,&lt;br&gt;&amp;nbsp;&amp;nbsp;&amp;nbsp; &quot;ball_y&quot;: 0,&lt;br&gt;&amp;nbsp;&amp;nbsp;&amp;nbsp; &quot;left_paddle_y&quot;: -1,&lt;br&gt;&amp;nbsp;&amp;nbsp;&amp;nbsp; &quot;right_paddle_y&quot;: 1,&lt;br&gt;&amp;nbsp;&amp;nbsp;&amp;nbsp; &quot;left_score&quot;: 3,&lt;br&gt;&amp;nbsp;&amp;nbsp;&amp;nbsp; &quot;right_score&quot;: 1,&lt;br&gt;&amp;nbsp;&amp;nbsp;&amp;nbsp; &quot;winner&quot;: &quot;Josh&quot;&lt;br&gt;}" style="text;whiteSpace=wrap;html=1;fillColor=#dae8fc;strokeColor=#6c8ebf;" vertex="1" parent="1">
          <mxGeometry x="350" y="490" width="120" height="150" as="geometry" />
        </mxCell>
        <mxCell id="2lE5Eo7Lk-MTYAhb3dyY-25" value="&lt;div&gt;if (room_name)&lt;/div&gt;&lt;div&gt;&lt;span style=&quot;white-space: pre;&quot;&gt;&lt;span style=&quot;white-space: pre;&quot;&gt;&amp;nbsp;&amp;nbsp;&amp;nbsp;&amp;nbsp;&lt;/span&gt;&lt;/span&gt;start_game&lt;/div&gt;" style="text;whiteSpace=wrap;html=1;" vertex="1" parent="1">
          <mxGeometry x="80" y="320" width="110" height="50" as="geometry" />
        </mxCell>
        <mxCell id="2lE5Eo7Lk-MTYAhb3dyY-29" value="&lt;div&gt;&lt;b&gt;Start Game:&lt;/b&gt;&lt;/div&gt;&lt;div&gt;keypress &quot;&quot; &quot;up&quot; or &quot;down&quot;&lt;/div&gt;&lt;div&gt;keypress_p2 is &quot;&quot;(empty) if it&#39;s not a local multiplayer game&lt;br&gt;&lt;/div&gt;" style="rounded=1;whiteSpace=wrap;html=1;align=left;fillColor=#ffe6cc;strokeColor=#d79b00;" vertex="1" parent="1">
          <mxGeometry x="75" y="650" width="190" height="120" as="geometry" />
        </mxCell>
        <mxCell id="2lE5Eo7Lk-MTYAhb3dyY-31" value="&lt;div&gt;if (winner)&lt;/div&gt;&lt;div&gt;&lt;span style=&quot;white-space: pre;&quot;&gt;&lt;span style=&quot;white-space: pre;&quot;&gt;&amp;nbsp;&amp;nbsp;&amp;nbsp;&amp;nbsp;end_game()&lt;/span&gt;&lt;/span&gt;&lt;/div&gt;" style="text;whiteSpace=wrap;html=1;" vertex="1" parent="1">
          <mxGeometry x="70" y="580" width="110" height="50" as="geometry" />
        </mxCell>
        <mxCell id="2lE5Eo7Lk-MTYAhb3dyY-32" value="" style="endArrow=classic;startArrow=none;html=1;rounded=0;endFill=1;startFill=0;" edge="1" parent="1" source="2lE5Eo7Lk-MTYAhb3dyY-39">
          <mxGeometry width="50" height="50" relative="1" as="geometry">
            <mxPoint x="730" y="1040" as="sourcePoint" />
            <mxPoint x="730" y="680" as="targetPoint" />
          </mxGeometry>
        </mxCell>
        <mxCell id="2lE5Eo7Lk-MTYAhb3dyY-33" value="" style="endArrow=classic;startArrow=classic;html=1;rounded=0;" edge="1" parent="1">
          <mxGeometry width="50" height="50" relative="1" as="geometry">
            <mxPoint x="540" y="860" as="sourcePoint" />
            <mxPoint x="920" y="860" as="targetPoint" />
          </mxGeometry>
        </mxCell>
        <mxCell id="2lE5Eo7Lk-MTYAhb3dyY-34" value="y" style="text;html=1;align=center;verticalAlign=middle;resizable=0;points=[];autosize=1;strokeColor=none;fillColor=none;" vertex="1" parent="1">
          <mxGeometry x="697.5" y="668" width="30" height="30" as="geometry" />
        </mxCell>
        <mxCell id="2lE5Eo7Lk-MTYAhb3dyY-35" value="x" style="text;html=1;align=center;verticalAlign=middle;resizable=0;points=[];autosize=1;strokeColor=none;fillColor=none;" vertex="1" parent="1">
          <mxGeometry x="900" y="860" width="30" height="30" as="geometry" />
        </mxCell>
        <mxCell id="2lE5Eo7Lk-MTYAhb3dyY-36" value="Coordinates Pong Game" style="text;html=1;align=center;verticalAlign=middle;resizable=0;points=[];autosize=1;strokeColor=none;fillColor=none;" vertex="1" parent="1">
          <mxGeometry x="565" y="720" width="150" height="30" as="geometry" />
        </mxCell>
        <mxCell id="2lE5Eo7Lk-MTYAhb3dyY-37" value="" style="rounded=0;whiteSpace=wrap;html=1;" vertex="1" parent="1">
          <mxGeometry x="550" y="960" width="15" height="80" as="geometry" />
        </mxCell>
        <mxCell id="2lE5Eo7Lk-MTYAhb3dyY-38" value="" style="rounded=0;whiteSpace=wrap;html=1;" vertex="1" parent="1">
          <mxGeometry x="890" y="680" width="15" height="80" as="geometry" />
        </mxCell>
        <mxCell id="2lE5Eo7Lk-MTYAhb3dyY-42" value="" style="endArrow=none;startArrow=classic;html=1;rounded=0;endFill=0;" edge="1" parent="1" target="2lE5Eo7Lk-MTYAhb3dyY-39">
          <mxGeometry width="50" height="50" relative="1" as="geometry">
            <mxPoint x="730" y="1040" as="sourcePoint" />
            <mxPoint x="730" y="680" as="targetPoint" />
          </mxGeometry>
        </mxCell>
        <mxCell id="2lE5Eo7Lk-MTYAhb3dyY-39" value="" style="ellipse;whiteSpace=wrap;html=1;aspect=fixed;" vertex="1" parent="1">
          <mxGeometry x="720" y="850" width="20" height="20" as="geometry" />
        </mxCell>
        <mxCell id="2lE5Eo7Lk-MTYAhb3dyY-43" value="Ball (0/0)" style="text;html=1;align=center;verticalAlign=middle;resizable=0;points=[];autosize=1;strokeColor=none;fillColor=none;" vertex="1" parent="1">
          <mxGeometry x="650" y="820" width="70" height="30" as="geometry" />
        </mxCell>
        <mxCell id="2lE5Eo7Lk-MTYAhb3dyY-44" value="left_paddle_y (-1)" style="text;html=1;align=center;verticalAlign=middle;resizable=0;points=[];autosize=1;strokeColor=none;fillColor=none;" vertex="1" parent="1">
          <mxGeometry x="497.5" y="930" width="120" height="30" as="geometry" />
        </mxCell>
        <mxCell id="2lE5Eo7Lk-MTYAhb3dyY-45" value="right_paddle_y (1)" style="text;html=1;align=center;verticalAlign=middle;resizable=0;points=[];autosize=1;strokeColor=none;fillColor=none;" vertex="1" parent="1">
          <mxGeometry x="810" y="760" width="120" height="30" as="geometry" />
        </mxCell>
      </root>
    </mxGraphModel>
  </diagram>
</mxfile>
